<svg xmlns="http://www.w3.org/2000/svg" width="16.093" height="16.757" viewBox="0 0 16.093 16.757">
  <path id="Контур_1116" data-name="Контур 1116" d="M-8356,11802.854c1.763-.6,3.349,1.21,4.37,2.006,1.155.9,2.5,1.762,2.752,3.707a55.234,55.234,0,0,1-.059,6.535c-.5,1.609-3.609,1.1-5.353,1.1-8.113,0-7.358.935-7.345-5.777,0-2.537.363-3.657,1.84-4.82A23.153,23.153,0,0,1-8356,11802.854Zm-.473-1.52a21.353,21.353,0,0,0-4.739,3.362c-1.787,1.6-2.007,3.37-2.015,6.238s-.482,5.174,1.638,6.444c1.2.718,6.074.428,7.813.424,2.856,0,5.146.435,6.225-1.843.443-.937.447-6.591.213-7.887-.432-2.383-1.941-3.423-3.441-4.578C-8352.162,11802.433-8353.844,11800.437-8356.478,11801.335Z" transform="translate(8363.281 -11801.108)" fill="#f8f2f2" fill-rule="evenodd"/>
</svg>
