<svg xmlns="http://www.w3.org/2000/svg" width="22.45" height="22.45" viewBox="0 0 22.45 22.45">
  <g id="MDI_qrcode-scan" data-name="MDI / qrcode-scan" transform="translate(0 0)">
    <g id="Boundary" transform="translate(0 0)" fill="#295f83" stroke="rgba(0,0,0,0)" stroke-width="1" opacity="0">
      <rect width="22.45" height="22.45" stroke="none"/>
      <rect x="0.5" y="0.5" width="21.45" height="21.45" fill="none"/>
    </g>
    <path id="Path_qrcode-scan" data-name="Path / qrcode-scan" d="M3.742,3.742H9.354V9.354H3.742V3.742m14.967,0V9.354H13.1V3.742h5.613M13.1,14.031h1.871V12.16H13.1V10.29h1.871V12.16h1.871V10.29h1.871V12.16H16.838v1.871h1.871v2.806H16.838v1.871H14.967V16.838H12.16v1.871H10.29V14.967H13.1v-.935m1.871,0v2.806h1.871V14.031H14.967M3.742,18.708V13.1H9.354v5.613H3.742m1.871-13.1V7.483H7.483V5.613H5.613m9.354,0V7.483h1.871V5.613H14.967M5.613,14.967v1.871H7.483V14.967H5.613M3.742,10.29H5.613V12.16H3.742V10.29m4.677,0H12.16v3.742H10.29V12.16H8.419V10.29M10.29,5.613H12.16V9.354H10.29V5.613M1.871,1.871V5.613H0V1.871A1.871,1.871,0,0,1,1.871,0H5.613V1.871H1.871M20.579,0A1.871,1.871,0,0,1,22.45,1.871V5.613H20.579V1.871H16.838V0h3.742M1.871,16.838v3.742H5.613V22.45H1.871A1.871,1.871,0,0,1,0,20.579V16.838H1.871m18.708,3.742V16.838H22.45v3.742a1.871,1.871,0,0,1-1.871,1.871H16.838V20.579Z" transform="translate(0 0)" fill="#295f83"/>
  </g>
</svg>
