<svg id="MDI_monitor-share" data-name="MDI / monitor-share" xmlns="http://www.w3.org/2000/svg" width="26.034" height="26.034" viewBox="0 0 26.034 26.034">
  <g id="Boundary" fill="#295f83" stroke="rgba(0,0,0,0)" stroke-width="1" opacity="0">
    <rect width="26.034" height="26.034" stroke="none"/>
    <rect x="0.5" y="0.5" width="25.034" height="25.034" fill="none"/>
  </g>
  <path id="Path_monitor-share" data-name="Path / monitor-share" d="M24.865,4.17V17.187a2.162,2.162,0,0,1-2.17,2.17H16.187v-2.17H22.7V4.17H3.17V17.187H9.678v2.17H3.17A2.169,2.169,0,0,1,1,17.187V4.17A2.162,2.162,0,0,1,3.17,2H22.7a2.169,2.169,0,0,1,2.17,2.17M14.017,13.932h3.254L12.932,9.593,8.593,13.932h3.254v7.593H8.593V23.7h8.678v-2.17H14.017Z" transform="translate(0.085 0.17)" fill="#295f83"/>
</svg>
